<?xml version="1.0" encoding="UTF-8"?>
<svg id="Layer_2" data-name="Layer 2" xmlns="http://www.w3.org/2000/svg" viewBox="0 0 610.84 142.97">
  <g id="Layer_1-2" data-name="Layer 1">
    <g>
      <path d="M203.7,73.7c-18.58-12.1-26.4-16.64-26.4-19.82,0-2.7,3.36-3.49,10.42-3.49h33.53v-21.49h-38.58c-21.37,0-30.68,10.76-30.68,23.49s7.7,19.49,21.88,28.82c20.13,13.07,26.28,16.49,26.34,19.55,0,2.91-3.36,3.76-10.49,3.76h-33.34v21.49h39.16c20.4,0,29.91-10.63,29.91-23.7,0-11.85-6.61-18.76-21.76-28.61"/>
      <path d="M266.89,56.16c-22.85,0-35.07,17.73-35.07,35.86s12.1,35.88,35.07,35.88,35.1-17.75,35.1-35.88-12.12-35.86-35.1-35.86M266.89,106.59c-8.4,0-13.4-6.42-13.4-14.57s5-14.55,13.4-14.55,13.4,6.4,13.4,14.55-4.98,14.57-13.4,14.57"/>
      <polygon points="370.05 28.9 370.05 64.7 333.66 64.7 333.66 28.9 309.83 28.9 309.83 126.01 333.66 126.01 333.66 87.49 370.05 87.49 370.05 126.01 393.86 126.01 393.86 28.9 370.05 28.9"/>
      <path d="M452.86,58.03v6.03c-2.6-3.94-8.94-7.91-16.58-7.91-20.4,0-32.31,17.03-32.31,35.86s11.66,35.88,32.82,35.88c8.82,0,15.61-4.48,18.7-9.21v7.33h19.24V58.03h-21.88ZM439.25,106.59c-8.4,0-13.4-6.42-13.4-14.57s5-14.55,13.4-14.55,13.4,6.4,13.4,14.55-4.98,14.57-13.4,14.57"/>
      <path d="M588.96,58.03v6.03c-2.6-3.94-8.94-7.91-16.58-7.91-20.4,0-32.31,17.03-32.31,35.86s11.66,35.88,32.82,35.88c8.82,0,15.61-4.48,18.7-9.21v7.33h19.24V58.03h-21.88ZM575.35,106.59c-8.4,0-13.4-6.42-13.4-14.57s5-14.55,13.4-14.55,13.4,6.4,13.4,14.55-4.98,14.57-13.4,14.57"/>
      <polygon points="535.92 58.03 488.8 58.03 488.8 126.01 512.6 126.01 512.6 79.68 535.92 79.68 535.92 58.03"/>
      <path d="M92.2,12.32V0H25.08v12.32H0v130.65h117.29V12.32h-25.08ZM110.37,136.05H6.91V19.23h25.08V6.91h53.3v12.32h25.08v116.82Z"/>
      <polygon points="35.25 67.79 50.02 46.24 67.44 72.04 71.1 66.72 103.46 66.72 103.46 26.15 78.38 26.15 78.38 13.83 38.91 13.83 38.91 26.15 13.83 26.15 13.83 81.67 42.57 81.67 49.94 70.94 67.31 96.74 78.38 80.6 96.56 80.6 96.56 87.5 82.04 87.5 67.27 109.04 49.85 83.24 46.19 88.56 13.83 88.56 13.83 129.14 103.46 129.14 103.46 73.62 74.76 73.66 67.39 84.39 49.98 58.59 38.91 74.73 20.77 74.73 20.77 67.79 35.25 67.79"/>
    </g>
  </g>
</svg>