<?xml version="1.0" encoding="UTF-8"?>
<svg id="Layer_2" data-name="Layer 2" xmlns="http://www.w3.org/2000/svg" viewBox="0 0 654.72 148.43">
  <defs>
    <style>
      .cls-1 {
        fill: #61d568;
      }

      .cls-2 {
        fill: #003b6b;
      }
    </style>
  </defs>
  <g id="Layer_1-2" data-name="Layer 1">
    <g>
      <path class="cls-1" d="M96.45,48.58v48.88h-45.54v-29.07c12.1-2.34,20.6-7.3,28.15-11.71,5.74-3.36,10.78-6.32,17.39-8.1"/>
      <path class="cls-2" d="M134.52,73.35l-30.35-30.34v62.2H16.16c-7.86,0-14.22,6.37-14.22,14.22v29.01h101.49c24.29,0,43.98-19.69,43.98-43.98,0-11.67-4.63-22.85-12.88-31.1"/>
      <path class="cls-2" d="M0,43.98h0c0,11.67,4.63,22.85,12.88,31.1l30.35,30.35v-62.2h16.58v-9.34h27.79v9.34h43.65c7.86,0,14.22-6.37,14.22-14.22V0H43.98C19.69,0,0,19.69,0,43.98"/>
      <path class="cls-2" d="M239.11,70.51c-18.97-12.35-26.95-16.98-26.95-20.23,0-2.76,3.43-3.56,10.64-3.56h34.22v-21.94h-39.39c-21.81,0-31.31,10.98-31.31,23.98s7.86,19.89,22.34,29.42c20.55,13.34,26.83,16.84,26.89,19.96,0,2.97-3.43,3.84-10.71,3.84h-34.03v21.94h39.98c20.82,0,30.54-10.85,30.54-24.19,0-12.1-6.74-19.16-22.21-29.21"/>
      <path class="cls-2" d="M303.62,52.6c-23.33,0-35.8,18.1-35.8,36.6s12.35,36.63,35.8,36.63,35.82-18.12,35.82-36.63-12.37-36.6-35.82-36.6M303.62,104.08c-8.58,0-13.68-6.55-13.68-14.88s5.1-14.86,13.68-14.86,13.68,6.53,13.68,14.86-5.08,14.88-13.68,14.88"/>
      <polygon class="cls-2" points="408.93 24.78 408.93 61.32 371.77 61.32 371.77 24.78 347.46 24.78 347.46 123.91 371.77 123.91 371.77 84.59 408.93 84.59 408.93 123.91 433.23 123.91 433.23 24.78 408.93 24.78"/>
      <path class="cls-2" d="M493.45,54.51v6.15c-2.66-4.02-9.12-8.07-16.92-8.07-20.82,0-32.98,17.39-32.98,36.6s11.91,36.63,33.51,36.63c9,0,15.93-4.57,19.09-9.4v7.48h19.64V54.51h-22.34ZM479.57,104.08c-8.58,0-13.68-6.55-13.68-14.88s5.1-14.86,13.68-14.86,13.68,6.53,13.68,14.86-5.08,14.88-13.68,14.88"/>
      <path class="cls-2" d="M632.39,54.51v6.15c-2.66-4.02-9.12-8.07-16.92-8.07-20.82,0-32.98,17.39-32.98,36.6s11.91,36.63,33.51,36.63c9,0,15.93-4.57,19.09-9.4v7.48h19.64V54.51h-22.34ZM618.5,104.08c-8.58,0-13.68-6.55-13.68-14.88s5.1-14.86,13.68-14.86,13.68,6.53,13.68,14.86-5.08,14.88-13.68,14.88"/>
      <polygon class="cls-2" points="578.25 54.51 530.14 54.51 530.14 123.91 554.44 123.91 554.44 76.61 578.25 76.61 578.25 54.51"/>
    </g>
  </g>
</svg>