<?xml version="1.0" encoding="UTF-8"?>
<svg id="Layer_2" data-name="Layer 2" xmlns="http://www.w3.org/2000/svg" viewBox="0 0 232.6 234.22">
  <defs>
    <style>
      .cls-1 {
        fill: #61d568;
      }

      .cls-2 {
        fill: #003b6b;
      }
    </style>
  </defs>
  <g id="Layer_1-2" data-name="Layer 1">
    <g>
      <path class="cls-1" d="M152.2,76.65v77.12h-71.87v-45.87c19.09-3.69,32.5-11.53,44.42-18.48,9.06-5.31,17.01-9.97,27.44-12.78"/>
      <path class="cls-2" d="M212.27,115.75l-47.88-47.88v98.14H25.49c-12.4,0-22.45,10.05-22.45,22.45v45.77h160.15c38.33,0,69.4-31.07,69.4-69.4,0-18.41-7.31-36.06-20.33-49.07"/>
      <path class="cls-2" d="M0,69.4h0c0,18.41,7.31,36.06,20.33,49.07l47.88,47.88v-98.14h26.16v-14.75h43.86v14.75h68.88c12.4,0,22.44-10.05,22.44-22.45V0H69.4C31.07,0,0,31.07,0,69.4"/>
    </g>
  </g>
</svg>