<?xml version="1.0" encoding="UTF-8"?>
<svg id="Layer_2" data-name="Layer 2" xmlns="http://www.w3.org/2000/svg" viewBox="0 0 637.71 149.26">
  <defs>
    <style>
      .cls-1 {
        fill: #215f9a;
      }
    </style>
  </defs>
  <g id="Layer_1-2" data-name="Layer 1">
    <g>
      <path d="M212.66,76.94c-19.4-12.63-27.57-17.37-27.57-20.69,0-2.82,3.51-3.64,10.88-3.64h35v-22.44h-40.28c-22.31,0-32.03,11.23-32.03,24.53s8.04,20.34,22.85,30.09c21.01,13.64,27.44,17.22,27.5,20.41,0,3.04-3.51,3.92-10.95,3.92h-34.81v22.44h40.88c21.29,0,31.23-11.1,31.23-24.74,0-12.37-6.9-19.59-22.72-29.87"/>
      <path d="M278.63,58.63c-23.86,0-36.62,18.51-36.62,37.44s12.63,37.46,36.62,37.46,36.64-18.54,36.64-37.46-12.65-37.44-36.64-37.44M278.63,111.28c-8.77,0-13.99-6.7-13.99-15.22s5.22-15.19,13.99-15.19,13.99,6.68,13.99,15.19-5.19,15.22-13.99,15.22"/>
      <polygon points="386.33 30.18 386.33 67.55 348.34 67.55 348.34 30.18 323.47 30.18 323.47 131.56 348.34 131.56 348.34 91.34 386.33 91.34 386.33 131.56 411.18 131.56 411.18 30.18 386.33 30.18"/>
      <path d="M472.78,60.59v6.29c-2.72-4.12-9.33-8.25-17.31-8.25-21.29,0-33.73,17.78-33.73,37.44s12.18,37.46,34.27,37.46c9.2,0,16.29-4.68,19.53-9.61v7.65h20.09V60.59h-22.85ZM458.58,111.28c-8.77,0-13.99-6.7-13.99-15.22s5.21-15.19,13.99-15.19,13.99,6.68,13.99,15.19-5.19,15.22-13.99,15.22"/>
      <path d="M614.87,60.59v6.29c-2.72-4.12-9.33-8.25-17.31-8.25-21.29,0-33.73,17.78-33.73,37.44s12.18,37.46,34.27,37.46c9.2,0,16.29-4.68,19.53-9.61v7.65h20.09V60.59h-22.85ZM600.67,111.28c-8.77,0-13.99-6.7-13.99-15.22s5.21-15.19,13.99-15.19,13.99,6.68,13.99,15.19-5.19,15.22-13.99,15.22"/>
      <polygon points="559.5 60.59 510.3 60.59 510.3 131.56 535.15 131.56 535.15 83.18 559.5 83.18 559.5 60.59"/>
      <path class="cls-1" d="M96.26,12.86V0H26.18v12.86H0v136.4h122.45V12.86h-26.18ZM115.23,142.04H7.22V20.08h26.18V7.22h55.64v12.86h26.18v121.96Z"/>
      <polygon class="cls-1" points="36.8 70.77 52.22 48.28 70.4 75.21 74.22 69.66 108.01 69.66 108.01 27.3 81.82 27.3 81.82 14.44 40.62 14.44 40.62 27.3 14.44 27.3 14.44 85.26 44.44 85.26 52.13 74.06 70.27 100.99 81.83 84.15 100.81 84.15 100.81 91.35 85.65 91.35 70.22 113.84 52.05 86.9 48.22 92.46 14.44 92.46 14.44 134.82 108.01 134.82 108.01 76.86 78.05 76.9 70.36 88.1 52.18 61.17 40.62 78.01 21.69 78.01 21.69 70.77 36.8 70.77"/>
    </g>
  </g>
</svg>