<?xml version="1.0" encoding="UTF-8"?>
<svg id="Layer_2" data-name="Layer 2" xmlns="http://www.w3.org/2000/svg" viewBox="0 0 207.28 252.67">
  <defs>
    <style>
      .cls-1 {
        fill: #fff;
      }
    </style>
  </defs>
  <g id="Layer_1-2" data-name="Layer 1">
    <g>
      <path class="cls-1" d="M162.95,21.77V0H44.32v21.77H0v230.9h207.28V21.77h-44.32ZM195.06,240.45H12.22V33.99h44.32V12.22h94.19v21.77h44.32v206.46Z"/>
      <polygon class="cls-1" points="62.29 119.8 88.4 81.72 119.18 127.32 125.65 117.92 182.84 117.92 182.84 46.21 138.51 46.21 138.51 24.44 68.77 24.44 68.77 46.21 24.44 46.21 24.44 144.33 75.23 144.33 88.25 125.37 118.95 170.96 138.52 142.45 170.65 142.45 170.65 154.64 144.99 154.64 118.88 192.71 88.1 147.11 81.63 156.52 24.44 156.52 24.44 228.23 182.84 228.23 182.84 130.11 132.12 130.18 119.1 149.14 88.33 103.54 68.76 132.06 36.71 132.06 36.71 119.8 62.29 119.8"/>
    </g>
  </g>
</svg>