<?xml version="1.0" encoding="UTF-8"?>
<svg id="Layer_2" data-name="Layer 2" xmlns="http://www.w3.org/2000/svg" viewBox="0 0 609.63 138.21">
  <defs>
    <style>
      .cls-1 {
        fill: #fff;
      }
    </style>
  </defs>
  <g id="Layer_1-2" data-name="Layer 1">
    <g>
      <path class="cls-1" d="M89.81,45.23v45.51h-42.41v-27.07c11.26-2.18,19.18-6.8,26.21-10.9,5.34-3.13,10.04-5.88,16.19-7.54"/>
      <path class="cls-1" d="M125.26,68.3l-28.26-28.25v57.91H15.04c-7.32,0-13.24,5.93-13.24,13.25v27.01h94.5c22.62,0,40.95-18.33,40.95-40.95,0-10.86-4.32-21.28-11.99-28.96"/>
      <path class="cls-1" d="M0,40.95h0c0,10.86,4.31,21.28,11.99,28.96l28.26,28.26v-57.91h15.44v-8.7h25.88v8.7h40.64c7.31,0,13.24-5.93,13.24-13.24V0H40.95C18.33,0,0,18.33,0,40.95"/>
      <path class="cls-1" d="M222.64,65.65c-17.66-11.5-25.1-15.81-25.1-18.84,0-2.57,3.2-3.32,9.91-3.32h31.87v-20.43h-36.67c-20.31,0-29.16,10.22-29.16,22.33s7.32,18.52,20.8,27.39c19.13,12.42,24.98,15.68,25.04,18.58,0,2.77-3.2,3.57-9.97,3.57h-31.69v20.43h37.22c19.39,0,28.43-10.1,28.43-22.53,0-11.26-6.28-17.84-20.68-27.2"/>
      <path class="cls-1" d="M282.71,48.97c-21.72,0-33.34,16.85-33.34,34.08s11.5,34.1,33.34,34.1,33.36-16.88,33.36-34.1-11.52-34.08-33.36-34.08M282.71,96.91c-7.99,0-12.74-6.1-12.74-13.85s4.75-13.83,12.74-13.83,12.73,6.08,12.73,13.83-4.73,13.85-12.73,13.85"/>
      <polygon class="cls-1" points="380.76 23.07 380.76 57.1 346.17 57.1 346.17 23.07 323.52 23.07 323.52 115.37 346.17 115.37 346.17 78.76 380.76 78.76 380.76 115.37 403.38 115.37 403.38 23.07 380.76 23.07"/>
      <path class="cls-1" d="M459.46,50.76v5.73c-2.47-3.75-8.5-7.51-15.76-7.51-19.39,0-30.71,16.19-30.71,34.08s11.09,34.1,31.2,34.1c8.38,0,14.83-4.26,17.78-8.75v6.97h18.29V50.76h-20.8ZM446.53,96.91c-7.99,0-12.74-6.1-12.74-13.85s4.75-13.83,12.74-13.83,12.73,6.08,12.73,13.83-4.73,13.85-12.73,13.85"/>
      <path class="cls-1" d="M588.83,50.76v5.73c-2.47-3.75-8.5-7.51-15.76-7.51-19.39,0-30.71,16.19-30.71,34.08s11.09,34.1,31.2,34.1c8.38,0,14.83-4.26,17.78-8.75v6.97h18.29V50.76h-20.8ZM575.9,96.91c-7.99,0-12.74-6.1-12.74-13.85s4.75-13.83,12.74-13.83,12.73,6.08,12.73,13.83-4.73,13.85-12.73,13.85"/>
      <polygon class="cls-1" points="538.42 50.76 493.63 50.76 493.63 115.37 516.25 115.37 516.25 71.33 538.42 71.33 538.42 50.76"/>
    </g>
  </g>
</svg>